PathFileType	4	(X/Y/Z)	S01_0007_Gait_markers.trc
DataRate	CameraRate	NumFrames	NumMarkers	Units	OrigDataRate	OrigDataStartFrame	OrigNumFrames
250.000000	250.000000	4	54	mm	250.000000	37	302
Frame#	Time	HEAD_ANT			R_HEAD			L_HEAD			C7			R_BACK			L_BACK			STERNUM			R_ACROMION			R_HUM_PROX			R_HUM_ANT			R_HUM_POST			R_ELBOW_LAT			R_ELBOW_MED			R_FOREARM			R_WIRST_LAT			R_WRITS_MED			R_HAND			L_ACROMION			L_HUM_PROX			L_HUM_ANT			L_HUM_POST			L_ELBOW_LAT			L_ELBOW_MED			L_FOREARM			L_WRIST_LAT			L_WIRST_MED			L_HAND			R_ILIAC			SACRUM			L_ILIAC			R_GTROCH			R_THIGH__1			R_THIGH_2			R_THIGH_3			R_THIGH_4			R_SHANK_1			R_SHANK_2			R_SHANK_3			R_SHANK_4			R_HEEL			R_FOOT_LAT			R_FOOT_MED			L_GTROCH			L_THIGH_1			L_THIGH_2			L_THIGH_3			L_THIGH_4			L_SHANK_1			L_SHANK_2			L_SHANK_3			L_SHANK_4			L_HEEL			L_FOOT_LAT			L_FOOT_MED			
		X1	Y1	Z1	X2	Y2	Z2	X3	Y3	Z3	X4	Y4	Z4	X5	Y5	Z5	X6	Y6	Z6	X7	Y7	Z7	X8	Y8	Z8	X9	Y9	Z9	X10	Y10	Z10	X11	Y11	Z11	X12	Y12	Z12	X13	Y13	Z13	X14	Y14	Z14	X15	Y15	Z15	X16	Y16	Z16	X17	Y17	Z17	X18	Y18	Z18	X19	Y19	Z19	X20	Y20	Z20	X21	Y21	Z21	X22	Y22	Z22	X23	Y23	Z23	X24	Y24	Z24	X25	Y25	Z25	X26	Y26	Z26	X27	Y27	Z27	X28	Y28	Z28	X29	Y29	Z29	X30	Y30	Z30	X31	Y31	Z31	X32	Y32	Z32	X33	Y33	Z33	X34	Y34	Z34	X35	Y35	Z35	X36	Y36	Z36	X37	Y37	Z37	X38	Y38	Z38	X39	Y39	Z39	X40	Y40	Z40	X41	Y41	Z41	X42	Y42	Z42	X43	Y43	Z43	X44	Y44	Z44	X45	Y45	Z45	X46	Y46	Z46	X47	Y47	Z47	X48	Y48	Z48	X49	Y49	Z49	X50	Y50	Z50	X51	Y51	Z51	X52	Y52	Z52	X53	Y53	Z53	X54	Y54	Z54	

38	0.148	410.1601867675781	1725.058959960938	-347.0271606445309	352.2759094238281	1667.8583984375	-273.274017333984	357.3836669921875	1675.196411132812	-421.2130432128902	223.6112518310547	1499.53125	-356.491790771484	150.294921875	1303.150268554688	-292.0992431640622	152.4449920654297	1308.3515625	-433.3334655761716	399.9055786132812	1335.552490234375	-350.4809570312497	297.983154296875	1448.779296875	-181.2990112304684	248.5987396240234	1291.385009765625	-92.06945037841768	302.3795776367188	1201.07080078125	-87.82847595214817	181.5746307373047	1213.235717773438	-81.26372528076145	220.8710174560547	1103.584838867188	-72.31717681884741	197.7649383544922	1101.592529296875	-151.1664886474607	312.5762939453125	915.6492919921875	-76.39940643310527	352.1922912597656	850.3396606445312	-118.4170913696287	281.55908203125	827.8021850585938	-86.1911087036131	346.3345947265625	759.9222412109375	-65.86777496337874	309.54296875	1456.347412109375	-520.8497924804684	287.3699645996094	1294.08740234375	-620.6121826171872	349.2217712402344	1213.777954101563	-624.4786987304685	228.4593811035156	1217.407836914063	-647.6417236328123	288.6871948242188	1113.750854492188	-662.1820068359373	236.8677520751953	1103.126342773438	-603.9033203124998	416.528076171875	953.4860229492189	-637.5902709960935	460.6736450195312	907.1428222656251	-588.2937011718748	414.821533203125	866.6898803710939	-640.4077148437498	505.7600402832031	830.0455322265626	-629.1781616210935	299.3336181640625	1053.719360351562	-188.979064941406	167.3245849609375	1024.383666992188	-353.7948608398435	292.0297546386719	1045.109008789063	-532.2615966796873	266.5248413085938	904.1260986328125	-174.5245971679686	392.4602355957031	640.422607421875	-207.8775634765624	440.8868713378906	673.9718017578125	-210.8165283203124	473.0585021972656	579.4121704101562	-250.2230987548827	413.0159912109375	563.4114990234375	-230.9658660888671	442.2182312011719	342.6889038085938	-230.2565307617187	495.6038513183594	328.3623352050782	-254.8133850097655	497.6347961425781	244.0959014892579	-274.2698059082031	436.8601989746094	242.7215423583985	-252.4260253906249	401.9977111816406	39.13335037231453	-338.1260681152344	567.810546875	21.26230621337896	-259.427734375	617.1604614257812	34.15522766113289	-360.0099182128906	239.7853546142578	934.7221679687501	-537.029113769531	280.165283203125	640.7500610351564	-542.4787597656249	229.7169647216797	671.4038085937501	-550.5271606445311	199.9604797363281	570.5446166992189	-531.6066894531249	263.2848205566406	561.2991333007814	-529.1029052734374	72.52783203125	344.0164184570314	-526.6457519531249	16.89263534545898	368.8883666992189	-524.8954467773436	-44.30799865722656	308.3987731933595	-507.4068603515624	5.674498081207275	268.0033264160157	-504.4118957519531	-188.6377716064453	218.088119506836	-438.3011474609374	-139.5145874023438	39.57781219482433	-468.3309936523438	-105.2651443481445	49.41322708129891	-370.5850219726562	
39	0.152	415.6692199707031	1725.462768554688	-346.3497619628902	357.9050598144531	1668.159057617188	-272.7787170410152	362.8740844726562	1675.745727539062	-420.5305175781246	229.1842956542969	1499.783569335938	-355.6601867675778	156.2794647216797	1303.364990234375	-291.3026428222653	158.1515350341797	1308.86962890625	-433.0497436523435	405.958251953125	1336.21630859375	-350.0358581542966	303.8930358886719	1449.263549804688	-180.8559570312497	255.2286987304688	1291.817626953125	-91.48950195312472	309.0089416503906	1201.53466796875	-87.52053070068332	187.7247161865234	1213.974487304688	-80.13727569580051	228.1305236816406	1103.862915039062	-71.64411926269507	204.3525390625	1101.967529296875	-150.2445678710935	319.8632507324219	916.0474853515625	-76.77580261230449	359.0208129882812	850.9317016601562	-119.2480850219725	288.4516906738281	828.1820068359375	-86.48158264160138	353.5662231445312	760.3064575195312	-66.74979400634749	315.4101257324219	1457.074462890625	-520.1996459960934	292.9224243164062	1294.938110351563	-620.2272338867184	354.4159240722656	1214.370849609375	-624.124816894531	233.5368499755859	1218.099731445313	-646.8913574218748	293.7140197753906	1114.415893554688	-661.8389892578123	242.1306304931641	1103.997192382813	-603.3793945312498	420.4455871582031	953.5300903320314	-638.0800170898435	464.4103393554688	906.7998046875001	-589.0382690429685	418.4109802246094	866.7361450195314	-640.970520019531	509.1907043457031	829.4590454101564	-630.1268310546873	305.2541809082031	1054.5341796875	-188.9498138427732	173.2691497802734	1024.63427734375	-353.6513671874998	298.6270141601562	1045.374877929688	-531.571594238281	272.224365234375	904.5872192382812	-174.2347412109373	397.2718200683594	640.3536987304688	-207.9003143310545	445.7864074707031	673.6174926757812	-209.9893951416014	477.7067565917969	579.4382934570312	-250.4718017578124	417.5304870605469	563.2122192382812	-231.2618865966796	445.3738708496094	342.6240844726563	-230.6899871826171	498.6681518554688	328.0677185058594	-255.2892303466796	499.9430541992188	243.6595458984376	-274.8522033691406	439.2241821289062	242.4770812988282	-253.3862762451171	402.303955078125	39.33239364624031	-337.5926513671875	567.9030151367188	21.18899726867681	-259.3150939941406	617.6534423828125	33.43346405029305	-360.416748046875	246.296875	934.4902343750001	-536.6896362304685	289.5549621582031	640.4850463867189	-542.9044189453124	238.9091339111328	670.6715087890626	-550.9441528320311	210.1340789794922	569.5254516601564	-532.2017822265624	273.5448608398438	560.8132934570314	-529.4730224609374	82.45603942871094	344.0276489257814	-527.1227416992186	27.24206924438477	369.9488830566407	-525.8812866210936	-34.8719482421875	309.6264648437501	-508.9419555664062	14.68697929382324	268.9794921875001	-505.3410644531249	-180.0634918212891	222.6048126220704	-440.3602905273437	-134.1196594238281	42.55064392089854	-468.9681091308594	-101.5491943359375	52.05531311035165	-371.2698059082031	
40	0.156	421.3675537109375	1725.83837890625	-345.8504943847652	363.548583984375	1668.503662109375	-272.1770019531246	368.4972534179688	1676.226196289062	-419.8396606445309	234.7935180664062	1500.082763671875	-355.1318969726559	162.2540740966797	1303.841430664062	-290.7010192871091	164.0127563476562	1309.384521484375	-432.6684875488278	411.8249816894531	1336.77978515625	-349.5498046874997	309.7417297363281	1449.732788085938	-180.39045715332	261.8402404785156	1292.233276367188	-90.7566604614255	315.6598205566406	1201.849853515625	-87.31366729736301	194.3470916748047	1214.19873046875	-79.28691864013645	234.3682403564453	1104.253540039062	-71.0751800537107	210.9375305175781	1102.278564453125	-149.2378692626951	326.9497680664062	916.5447998046875	-77.22821044921855	365.9088439941406	851.4677734375	-120.1380844116209	295.3589782714844	828.432861328125	-86.80702972412091	360.9440307617188	760.7548828125	-68.2889099121092	321.0741271972656	1457.658813476563	-519.7195434570309	298.4203796386719	1295.530883789063	-619.9185791015622	359.8043823242188	1214.843994140625	-623.980529785156	238.4314117431641	1218.989501953125	-646.318908691406	298.6156005859375	1115.1923828125	-661.499084472656	247.3251037597656	1105	-602.8674316406248	424.5816650390625	953.5235595703126	-638.3808593749998	468.2679443359375	906.4596557617189	-589.345275878906	422.0480651855469	866.8028564453126	-641.438781738281	512.529052734375	828.6613159179689	-630.8413085937498	310.9326782226562	1055.340576171875	-188.8772888183591	178.1512908935547	1024.77197265625	-353.5691223144529	305.1103820800781	1046.08642578125	-530.8122558593748	278.0994262695312	904.9558715820312	-173.9432220458982	402.1824340820312	639.5451049804688	-208.340377807617	450.5155334472656	673.2288208007812	-208.0223236083983	482.2257080078125	578.8026123046875	-250.4419860839842	421.8536987304688	563.0202026367188	-231.3729400634764	448.3446960449219	342.6672363281251	-231.1407318115234	501.5799560546875	327.3616943359376	-256.2279968261718	502.0614929199219	243.3096160888672	-275.4080810546874	441.3904113769531	242.8373718261719	-253.3183288574218	402.4992370605469	39.48560333251961	-337.8804931640625	567.9820556640625	21.11544990539556	-259.1533813476562	618.1424560546875	32.77806854248055	-360.7411499023438	252.8529510498047	934.3269042968751	-536.2272949218748	298.8285827636719	640.3149414062501	-543.3805541992186	247.8341979980469	669.5748901367189	-551.0679931640624	220.3609313964844	568.4390258789064	-532.2336425781249	283.8250732421875	560.5056152343751	-529.9432983398436	92.55954742431641	344.090789794922	-527.7406005859374	37.56921768188477	370.3750000000001	-526.9604492187499	-25.1737174987793	311.4149780273439	-510.1521606445312	23.76210021972656	269.7498168945314	-505.8587036132812	-170.9884643554688	227.1648559570313	-442.1182861328124	-130.5870056152344	46.01991271972667	-469.8807678222656	-97.00611877441406	54.90119552612313	-372.640625	
41	0.16	427.0142517089844	1726.47509765625	-345.1560058593746	369.3698425292969	1668.944702148438	-271.4764404296871	374.2979125976562	1676.601928710938	-419.3790588378902	240.4380950927734	1500.399291992188	-354.5426025390622	168.4256896972656	1304.3154296875	-290.1622314453122	170.0638885498047	1309.969482421875	-432.358459472656	417.7591247558594	1337.375122070312	-349.2477111816403	315.7166137695312	1450.169067382812	-180.004959106445	268.2847290039062	1292.697998046875	-90.10694885253878	322.28564453125	1202.338500976562	-87.07428741455051	201.5597534179688	1214.399780273438	-78.17932891845676	241.1109008789062	1104.617431640625	-70.45353698730445	216.4416961669922	1102.83984375	-148.4786987304685	333.7944030761719	917.0423583984375	-77.62999725341777	372.7406005859375	852.1080322265625	-120.9596023559568	302.645751953125	828.8706665039062	-87.106002807617	368.3586120605469	761.2442626953125	-69.31960296630842	326.6702880859375	1458.255493164063	-519.2152099609372	303.6310424804688	1296.150756835938	-619.4392089843747	364.7059326171875	1215.332275390625	-624.1759643554685	243.5956268310547	1219.818603515625	-645.613586425781	303.4564819335938	1115.894897460938	-661.0592041015623	252.1142578125	1105.672119140625	-602.5485839843748	428.7543640136719	953.4219970703126	-638.6372070312498	472.2511901855469	906.1058959960939	-589.9506225585935	425.4587097167969	867.2044677734376	-642.689758300781	515.8867797851562	828.0591430664064	-631.4567871093748	317.0371398925781	1056.089477539062	-189.0118103027341	183.638916015625	1025.060180664062	-353.5997619628904	311.5373229980469	1046.577270507813	-530.0483398437498	283.7083435058594	905.3604125976562	-173.4621887207029	406.3902282714844	640.2440185546875	-208.1444091796874	455.3791809082031	672.9940185546875	-209.4343414306639	486.6568908691406	578.95166015625	-250.554244995117	425.8788757324219	562.916748046875	-231.7508544921874	451.1060791015625	342.5225524902344	-231.6277923583984	504.2554016113281	327.0338134765626	-256.7057189941406	504.0784301757812	242.9102630615235	-275.8384094238281	443.4763488769531	243.1435089111329	-253.5541381835937	402.6852111816406	39.59420776367195	-338.1442565917969	568.0653686523438	21.07737731933599	-259.0999145507812	618.6173706054688	32.13314437866219	-361.2660827636719	259.5603942871094	934.1223144531251	-535.5753173828123	308.3334350585938	640.2218017578126	-543.4356079101561	257.0092468261719	668.8833007812501	-551.1971435546874	230.5931243896484	567.6351318359376	-532.6435546874999	294.1462097167969	560.3056640625001	-530.3111572265624	102.8224868774414	344.2560424804689	-528.3562011718749	48.19745635986328	371.1502990722657	-527.9348144531249	-15.39565181732178	313.0723266601564	-511.0323486328124	33.08036041259766	270.852508544922	-506.4813842773437	-161.6570739746094	231.6882629394532	-443.6068115234374	-125.9501724243164	49.30393981933604	-470.5028381347656	-92.20266723632812	57.73612213134774	-373.64599609375	
